<svg width="1357" height="210" viewBox="0 0 1357 210" xmlns="http://www.w3.org/2000/svg"><path d="M36.12 204v-82.04h27.16c10.453 0 20.347-1.027 29.68-3.08 9.333-2.053 17.5-5.367 24.5-9.94 7-4.573 12.553-10.593 16.66-18.06 4.107-7.467 6.16-16.707 6.16-27.72 0-10.267-1.773-19.04-5.32-26.32-3.547-7.28-8.587-13.253-15.12-17.92-6.533-4.667-14.373-8.027-23.52-10.08-9.147-2.053-19.413-3.08-30.8-3.08H.84V204h35.28zM57.76 92.28H33.12V35.44h25.76c5.413 0 10.687.327 15.82.98 5.133.653 9.707 2.007 13.72 4.06 4.013 2.053 7.233 4.9 9.66 8.54 2.427 3.64 3.64 8.353 3.64 14.14 0 5.973-1.213 10.827-3.64 14.56-2.427 3.733-5.693 6.673-9.8 8.82-4.107 2.147-8.773 3.64-14 4.48-5.227.84-10.733 1.26-16.52 1.26zm155.32 115.64c10.08 0 18.807-2.567 26.18-7.7 7.373-5.133 12.553-11.06 15.54-17.78h.56V204h31.92V69.6h-33.6v73.92c0 4.48-.653 8.913-1.96 13.3-1.307 4.387-3.22 8.26-5.74 11.62-2.52 3.36-5.787 6.113-9.8 8.26-4.013 2.147-8.633 3.22-13.86 3.22-5.413 0-9.753-1.12-13.02-3.36-3.267-2.24-5.833-5.087-7.7-8.54-1.867-3.453-3.08-7.327-3.64-11.62-.56-4.293-.84-8.4-.84-12.32V69.6h-33.6v84c0 6.907.933 13.627 2.8 20.16 1.867 6.533 4.807 12.32 8.82 17.36 4.013 5.04 9.147 9.1 15.4 12.18s13.767 4.62 22.54 4.62zM351.76 204V6h-33.6v198h33.6zm76.08 3.92c7.28 0 14.327-.793 21.14-2.38 6.813-1.587 12.787-4.153 17.92-7.7 5.133-3.547 9.24-8.167 12.32-13.86s4.62-12.647 4.62-20.86c0-6.533-1.307-12.087-3.92-16.66s-6.02-8.4-10.22-11.48c-4.2-3.08-8.867-5.553-14-7.42-5.133-1.867-10.22-3.36-15.26-4.48-9.52-2.24-16.753-4.433-21.7-6.58-4.947-2.147-7.42-5.833-7.42-11.06s2.24-8.96 6.72-11.2c4.48-2.24 9.427-3.36 14.84-3.36 6.16 0 11.853 1.447 17.08 4.34 5.227 2.893 9.333 6.3 12.32 10.22l21.84-19.32c-5.413-6.907-12.74-12.04-21.98-15.4-9.24-3.36-18.713-5.04-28.42-5.04-6.72 0-13.253.84-19.6 2.52-6.347 1.68-12.04 4.247-17.08 7.7-5.04 3.453-9.1 7.887-12.18 13.3-3.08 5.413-4.62 11.853-4.62 19.32 0 6.347 1.12 11.667 3.36 15.96 2.24 4.293 5.227 7.887 8.96 10.78 3.733 2.893 7.98 5.227 12.74 7 4.76 1.773 9.66 3.22 14.7 4.34 10.267 2.427 17.967 4.853 23.1 7.28 5.133 2.427 7.7 6.44 7.7 12.04 0 2.987-.653 5.507-1.96 7.56a14.494 14.494 0 01-5.18 4.9c-2.147 1.213-4.48 2.1-7 2.66-2.52.56-4.993.84-7.42.84-7.28 0-13.907-1.587-19.88-4.76-5.973-3.173-10.827-7.187-14.56-12.04l-22.12 20.72c6.533 7.093 14.747 12.553 24.64 16.38 9.893 3.827 20.067 5.74 30.52 5.74zm146.52 0c25.2 0 44.427-8.96 57.68-26.88l-22.4-17.92c-3.733 5.413-8.493 9.66-14.28 12.74-5.787 3.08-12.88 4.62-21.28 4.62-4.853 0-9.52-.84-14-2.52-4.48-1.68-8.493-3.967-12.04-6.86a33.854 33.854 0 01-8.54-10.36c-2.147-4.013-3.407-8.447-3.78-13.3h102.2a36.02 36.02 0 00.28-4.48v-4.48c0-12.133-1.633-22.727-4.9-31.78-3.267-9.053-7.793-16.613-13.58-22.68s-12.647-10.64-20.58-13.72c-7.933-3.08-16.567-4.62-25.9-4.62-10.08 0-19.46 1.727-28.14 5.18-8.68 3.453-16.193 8.307-22.54 14.56-6.347 6.253-11.34 13.813-14.98 22.68-3.64 8.867-5.46 18.713-5.46 29.54 0 11.013 1.82 20.86 5.46 29.54 3.64 8.68 8.68 16.007 15.12 21.98 6.44 5.973 14.047 10.593 22.82 13.86 8.773 3.267 18.387 4.9 28.84 4.9zm33.24-84.56h-68.88c.747-9.52 4.62-17.313 11.62-23.38 7-6.067 15.54-9.1 25.62-9.1 5.413 0 10.127.887 14.14 2.66 4.013 1.773 7.327 4.153 9.94 7.14 2.613 2.987 4.527 6.44 5.74 10.36 1.213 3.92 1.82 8.027 1.82 12.32zm161.08 85.68c16.987 0 31.827-3.033 44.52-9.1 12.693-6.067 23.427-14.607 32.2-25.62l-28.28-19.88c-5.04 6.907-11.667 12.46-19.88 16.66-8.213 4.2-17.64 6.3-28.28 6.3-10.267 0-19.507-1.773-27.72-5.32-8.213-3.547-15.26-8.54-21.14-14.98-5.88-6.44-10.407-14.14-13.58-23.1s-4.76-18.853-4.76-29.68c0-10.267 1.633-19.787 4.9-28.56 3.267-8.773 7.933-16.427 14-22.96 6.067-6.533 13.3-11.667 21.7-15.4 8.4-3.733 17.733-5.6 28-5.6 8.027 0 16.24 1.633 24.64 4.9 8.4 3.267 15.213 8.447 20.44 15.54l26.88-21.28c-3.92-5.227-8.68-9.707-14.28-13.44a96.217 96.217 0 00-17.92-9.38c-6.347-2.52-12.973-4.387-19.88-5.6-6.907-1.213-13.533-1.82-19.88-1.82-15.307 0-29.493 2.427-42.56 7.28-13.067 4.853-24.407 11.76-34.02 20.72-9.613 8.96-17.173 19.833-22.68 32.62-5.507 12.787-8.26 27.113-8.26 42.98 0 15.493 2.613 29.633 7.84 42.42 5.227 12.787 12.507 23.8 21.84 33.04 9.333 9.24 20.487 16.427 33.46 21.56 12.973 5.133 27.207 7.7 42.7 7.7zM903.72 204v-73.36c0-4.48.653-8.867 1.96-13.16 1.307-4.293 3.267-8.167 5.88-11.62 2.613-3.453 5.88-6.207 9.8-8.26 3.92-2.053 8.587-3.08 14-3.08s9.753 1.12 13.02 3.36c3.267 2.24 5.787 5.087 7.56 8.54 1.773 3.453 2.94 7.28 3.5 11.48s.84 8.26.84 12.18V204h33.6v-84c0-6.907-.933-13.627-2.8-20.16-1.867-6.533-4.807-12.32-8.82-17.36-4.013-5.04-9.147-9.1-15.4-12.18s-13.767-4.62-22.54-4.62c-5.04 0-9.707.653-14 1.96-4.293 1.307-8.12 3.033-11.48 5.18-3.36 2.147-6.3 4.573-8.82 7.28-2.52 2.707-4.433 5.46-5.74 8.26h-.56V.193h-33.6V204h33.6zm164.24 3.36c9.52 0 18.013-1.913 25.48-5.74 7.467-3.827 12.88-8.727 16.24-14.7h.84V204h31.36v-81.76c0-6.72-.887-13.44-2.66-20.16-1.773-6.72-4.9-12.787-9.38-18.2-4.48-5.413-10.593-9.8-18.34-13.16-7.747-3.36-17.593-5.04-29.54-5.04-10.267 0-20.393 1.773-30.38 5.32-9.987 3.547-18.807 8.867-26.46 15.96l17.36 20.44c4.293-4.293 9.707-7.933 16.24-10.92 6.533-2.987 13.347-4.48 20.44-4.48 8.4 0 15.633 2.007 21.7 6.02s9.1 10.22 9.1 18.62V120c-10.453 0-21.14.513-32.06 1.54-10.92 1.027-20.86 3.127-29.82 6.3s-16.287 7.747-21.98 13.72c-5.693 5.973-8.54 14-8.54 24.08 0 7.84 1.633 14.42 4.9 19.74 3.267 5.32 7.373 9.613 12.32 12.88 4.947 3.267 10.36 5.6 16.24 7 5.88 1.4 11.527 2.1 16.94 2.1zm6.72-25.48c-2.8 0-5.6-.28-8.4-.84-2.8-.56-5.32-1.493-7.56-2.8a16.122 16.122 0 01-5.46-5.18c-1.4-2.147-2.1-4.807-2.1-7.98 0-5.04 1.68-9.007 5.04-11.9 3.36-2.893 7.56-5.133 12.6-6.72 5.04-1.587 10.547-2.613 16.52-3.08 5.973-.467 11.667-.7 17.08-.7h7.56v4.76c0 10.64-2.987 19.04-8.96 25.2-5.973 6.16-14.747 9.24-26.32 9.24zm112.48-137.76c6.16 0 11.34-1.913 15.54-5.74 4.2-3.827 6.3-8.633 6.3-14.42 0-5.787-2.1-10.593-6.3-14.42-4.2-3.827-9.38-5.74-15.54-5.74-6.16 0-11.247 2.007-15.26 6.02s-6.02 8.727-6.02 14.14 2.007 10.127 6.02 14.14 9.1 6.02 15.26 6.02zM1204.24 204V69.6h-33.6V204h33.6zm62.48 0v-73.92c0-4.48.653-8.913 1.96-13.3 1.307-4.387 3.22-8.26 5.74-11.62 2.52-3.36 5.74-6.113 9.66-8.26 3.92-2.147 8.587-3.22 14-3.22s9.753 1.12 13.02 3.36c3.267 2.24 5.833 5.087 7.7 8.54 1.867 3.453 3.08 7.327 3.64 11.62.56 4.293.84 8.4.84 12.32V204h33.6v-84c0-6.907-.933-13.627-2.8-20.16-1.867-6.533-4.807-12.32-8.82-17.36-4.013-5.04-9.147-9.1-15.4-12.18s-13.767-4.62-22.54-4.62c-10.08 0-18.807 2.567-26.18 7.7-4.916 3.422-10.282 8.114-16.1 14.076V69.6h-31.92V204h33.6z"/></svg>