<svg width="433" height="402" viewBox="0 0 433 402" xmlns="http://www.w3.org/2000/svg"><defs><linearGradient x1="76.226%" y1="7.459%" x2="23.651%" y2="92.566%" id="a"><stop stop-color="#00EAFF" offset="0%"/><stop stop-color="#0080FF" offset="25.253%"/><stop stop-color="#8000FF" offset="49.739%"/><stop stop-color="#E619E6" offset="74.991%"/><stop stop-color="red" offset="99.914%"/></linearGradient></defs><path d="M565.599 372.951c0 2.051-.475 4.002-1.376 5.694l-92.665 160.5a22 22 0 01-19.052 11H246.593a22 22 0 01-19.053-11L134.867 378.63c-.898-1.69-1.367-3.63-1.367-5.679 0-6.643 5.385-12.028 12.028-12.028H247.2l25.766 43.765.159.261c3.438 5.521 10.673 7.32 16.31 4.002l.291-.177a12.028 12.028 0 005.251-7.176l32.832-126.92 28.19 204.334.043.285c1.041 6.428 7.031 10.881 13.517 9.987l.294-.045a12.029 12.029 0 009.707-8.859l39.574-152.983 16.249 27.6.161.266a12.028 12.028 0 0010.204 5.66H553.57c6.643 0 12.029 5.385 12.029 12.028zM452.506 149.494a22 22 0 0119.052 11L564.23 321c.896 1.69 1.37 3.64 1.37 5.687 0 6.643-5.386 12.028-12.029 12.028H451.566L425.8 294.951l-.177-.292a12.028 12.028 0 00-7.176-5.25l-.28-.07c-6.34-1.482-12.738 2.364-14.377 8.702l-32.833 126.92-28.19-204.334-.044-.295a12.029 12.029 0 00-8.859-9.706c-6.431-1.664-12.994 2.201-14.657 8.632l-39.575 152.983-16.248-27.599-.161-.266a12.028 12.028 0 00-10.205-5.66h-107.49c-6.643 0-12.028-5.385-12.028-12.028 0-2.031.456-3.953 1.338-5.632l92.702-160.562a22 22 0 0119.053-11h205.913z" transform="translate(-133 -149)" fill="url(#a)" fill-rule="evenodd"/></svg>